<?xml version="1.0" encoding="UTF-8" standalone="no"?>
<svg
   xmlns:dc="http://purl.org/dc/elements/1.1/"
   xmlns:cc="http://creativecommons.org/ns#"
   xmlns:rdf="http://www.w3.org/1999/02/22-rdf-syntax-ns#"
   xmlns:svg="http://www.w3.org/2000/svg"
   xmlns="http://www.w3.org/2000/svg"
   xmlns:sodipodi="http://sodipodi.sourceforge.net/DTD/sodipodi-0.dtd"
   xmlns:inkscape="http://www.inkscape.org/namespaces/inkscape"
   width="210mm"
   height="297mm"
   viewBox="0 0 210 297"
   version="1.1"
   id="svg1575"
   inkscape:version="1.0.2-2 (e86c870879, 2021-01-15)"
   sodipodi:docname="ISO-Color-Volts.svg">
  <defs
     id="defs1569" />
  <sodipodi:namedview
     id="base"
     pagecolor="#ffffff"
     bordercolor="#666666"
     borderopacity="1.0"
     inkscape:pageopacity="0.0"
     inkscape:pageshadow="2"
     inkscape:zoom="0.35"
     inkscape:cx="400"
     inkscape:cy="560"
     inkscape:document-units="mm"
     inkscape:current-layer="layer1"
     inkscape:document-rotation="0"
     showgrid="false"
     inkscape:window-width="1366"
     inkscape:window-height="720"
     inkscape:window-x="0"
     inkscape:window-y="0"
     inkscape:window-maximized="0" />
  <metadata
     id="metadata1572">
    <rdf:RDF>
      <cc:Work
         rdf:about="">
        <dc:format>image/svg+xml</dc:format>
        <dc:type
           rdf:resource="http://purl.org/dc/dcmitype/StillImage" />
        <dc:title></dc:title>
      </cc:Work>
    </rdf:RDF>
  </metadata>
  <g
     inkscape:label="Calque 1"
     inkscape:groupmode="layer"
     id="layer1">
    <g
       id="g3132"
       style="fill:#1aa500;fill-opacity:1"
       inkscape:export-xdpi="5.0749311"
       inkscape:export-ydpi="5.0749311"
       transform="matrix(1.0085156,0,0,1.0085156,-2.9854898,-7.4532774)"
       inkscape:export-filename="C:\Users\sendd\OneDrive\Documentos\Paginas GitHub\IMG\ColorVoltsISO.png">
      <path
         style="fill:#1aa500;fill-opacity:1;stroke:none;stroke-width:0.264583px;stroke-linecap:butt;stroke-linejoin:miter;stroke-opacity:1"
         d="m 80.886905,93.360117 c -39.80104,6.052174 -61.310765,25.638893 -70.870536,63.877973 -3.553482,14.21393 -2.7179982,33.19867 6.236607,45.73512 10.330029,14.46204 35.589349,16.12975 51.782738,13.653 18.29263,-2.99401 33.668556,-10.44155 48.380956,-20.83455 l -7.3707,-35.16267 C 93.399854,167.16772 75.101286,178.94211 56.628715,175.86335 46.493542,174.17415 36.370342,166.37397 37.919848,147.53278 40.48291,126.48671 62.682512,102.88115 90.069831,96.484299 L 81.249936,80.715397 Z"
         id="path38"
         sodipodi:nodetypes="csscccscccc" />
      <path
         style="fill:#1aa500;fill-opacity:1;stroke:none;stroke-width:0.264583px;stroke-linecap:butt;stroke-linejoin:miter;stroke-opacity:1"
         d="m 194.83948,71.093694 11.75986,5.078122 -71.62823,106.106004 -4.27631,-15.23437 z"
         id="path42" />
      <path
         style="fill:#1aa500;fill-opacity:1;stroke:none;stroke-width:0.264583px;stroke-linecap:butt;stroke-linejoin:miter;stroke-opacity:1"
         d="m 124.01306,200.58578 c 11.65514,4.42735 0.45957,14.09031 2.6727,22.58427 10.07749,13.68564 7.08485,-14.82901 8.01808,-28.33057 0.22417,-3.24317 -10.69078,4.75602 -10.69078,5.7463 z"
         id="path46"
         sodipodi:nodetypes="ccsc" />
      <path
         style="fill:#1aa500;fill-opacity:1;stroke:none;stroke-width:0.264583px;stroke-linecap:butt;stroke-linejoin:miter;stroke-opacity:1"
         d="m 108.5168,161.15816 c 3.78629,-8.5808 17.12156,-9.10436 21.10891,-3.46913 l 8.419,33.27505 c -2.75875,10.91833 -14.66569,13.0076 -21.5152,8.01807 z"
         id="path44"
         sodipodi:nodetypes="ccccc" />
      <path
         style="fill:#1aa500;fill-opacity:1;stroke:#000000;stroke-width:0.264583px;stroke-linecap:butt;stroke-linejoin:miter;stroke-opacity:1"
         d="m 96.21703,67.084651 4.54358,73.499119 16.57071,-10.95805 3.74178,41.69405 12.02712,-79.111783 -17.90705,21.381563 3.20723,-50.781211 z"
         id="path40" />
    </g>
  </g>
</svg>
